<?xml version="1.0"?>
<svg width="1000" height="1000" xmlns="http://www.w3.org/2000/svg" xmlns:svg="http://www.w3.org/2000/svg" version="1.1" xml:space="preserve">
 <desc>Created with Fabric.js 3.5.0</desc>

 <g class="layer">
  <title>Layer 1</title>
  <ellipse cx="505.27" cy="501.73" fill="#FF0000" id="svg_8" rx="463.5" ry="464" stroke="#000000"/>
  <rect fill="rgba(102,51,102,0)" height="1000" id="svg_3" transform="matrix(1 0 0 1 0 0)" width="1000" x="-1" y="-10"/>
  <g id="svg11300" transform="matrix(1 0 0 1 0 0) matrix(45.6755 0 0 45.6755 502.662 499.348)">
   <circle cx="0" cy="-0.09" fill="#000000" fill-rule="nonzero" id="svg_5" r="2.4" stroke-dashoffset="0" stroke-miterlimit="4"/>
  </g>
  <g id="svg_1" transform="matrix(45.6755 0 0 45.6755 474.385 432.653)">
   <path d="m16.67,13.06c0.12,-0.47 0.17,-0.95 0.17,-1.43c0,-2.74 -1.81,-5.16 -4.44,-5.93c0.01,-0.65 -0.35,-1.25 -0.92,-1.55c-0.19,-0.09 -0.38,-0.15 -0.59,-0.18c0.37,-0.57 0.85,-1.06 1.43,-1.43c-2.21,0.28 -3.15,2.34 -3.15,2.35c-0.13,0.25 -0.2,0.53 -0.2,0.81c-3.22,0.94 -5.1,4.27 -4.25,7.51c-0.56,0.33 -0.89,0.94 -0.85,1.59c0.01,0.2 0.06,0.4 0.14,0.59c-0.68,-0.02 -1.35,-0.18 -1.96,-0.48c1.38,1.74 3.63,1.49 3.63,1.49c0.29,-0.01 0.56,-0.1 0.8,-0.25c2.41,2.24 6.16,2.19 8.51,-0.11c0.76,0.44 1.73,0.25 2.25,-0.46c0.32,0.6 0.51,1.27 0.55,1.94c0.85,-2.05 -0.49,-3.89 -0.49,-3.89c-0.16,-0.24 -0.37,-0.43 -0.63,-0.57zm-5.98,4.36c-1.45,0 -2.84,-0.54 -3.91,-1.52c0.93,-0.92 0.51,-2.52 -0.76,-2.86c-0.18,-0.05 -0.36,-0.07 -0.55,-0.06c-0.13,0.01 -0.27,0.04 -0.4,0.08c-0.78,-3.02 0.97,-6.1 3.95,-6.99c0.31,1.28 1.89,1.74 2.84,0.83c0.14,-0.13 0.26,-0.29 0.34,-0.45c0.06,-0.13 0.11,-0.25 0.15,-0.38c2.92,0.87 4.66,3.87 3.98,6.84c-1.27,-0.35 -2.45,0.81 -2.11,2.08c0.04,0.17 0.11,0.34 0.21,0.49c0.07,0.11 0.16,0.21 0.26,0.3c-1.07,1.05 -2.51,1.63 -4,1.64z" fill="#020202" fill-rule="nonzero" id="svg_6" stroke-dashoffset="0" stroke-miterlimit="4" transform="translate(-10.0819 -10.2408)"/>
  </g>
  <g id="svg_2" transform="matrix(45.6755 0 0 45.6755 502.617 499.161)">
   <path d="m21.11,8.86c-2.19,-7.93 -12.15,-10.51 -17.93,-4.64c-5.77,5.87 -3.02,15.79 4.95,17.85c4.69,1.21 9.6,-0.87 11.98,-5.08c1.41,-2.46 1.77,-5.39 1,-8.13zm-1.54,7.82c-3.82,6.74 -13.5,6.82 -17.43,0.14c-3.93,-6.67 0.85,-15.09 8.59,-15.16c4.55,-0.04 8.56,2.99 9.78,7.38c0.71,2.57 0.37,5.32 -0.94,7.64z" fill="#000000" fill-rule="nonzero" id="svg_7" stroke-dashoffset="0" stroke-miterlimit="4" transform="translate(-10.7 -11.697)"/>
  </g>
 </g>
</svg>